<svg width="354" height="100" viewBox="0 0 354 100" fill="none" xmlns="http://www.w3.org/2000/svg">
<g clip-path="url(#clip0_1_2)">
<path d="M171.5 -127L233.806 -124.23L171.5 -27L112 -27L171.5 -127Z" fill="#0D6D45"/>
<path d="M0 100.066L56.5 100.066L141 5.5497e-06L86 5.59571e-06L0 100.066Z" fill="#21E492"/>
<path d="M146 82L186.5 100.24L271 -2.36552e-06L216 -2.3195e-06L146 82Z" fill="#21E492"/>
<path d="M56.5 100.209L103 100.209L141 54L156.5 70L179.5 43L141 -3.19039e-06L56.5 100.209Z" fill="#0D6D45"/>
<path d="M186.5 100L231.5 100L271 53.5L307 100L353.5 100L271 5.34777e-06L186.5 100Z" fill="#0D6D45"/>
<path d="M129 68.5L141 54L186.5 100L159.5 100L129 68.5Z" fill="#21E492"/>
</g>
<defs>
<clipPath id="clip0_1_2">
<rect width="354" height="100" fill="white"/>
</clipPath>
</defs>
</svg>
